# xmcd
#
# Track frame offsets:
#  150
#  14177
#  29139
#  42642
#  57412
#  72137
#  86214
#  99561
#  112669
#  126189
#  140442
#  154667
#  169285
#  181838
#  194640
#  209075
#  223405
#  236887
#
# Disc length: 3345 seconds
#
# Revision: 2
# Processed by: cddbd v1.5PL3 Copyright (c) Steve Scherf et al.
# Submitted via: KiC 3.1 - (C) 1996-1999 Alwin Hoogerdijk
#
DISCID=220d0f12
DTITLE=Billie Holiday - I Love You Porgy [CD2)
DYEAR=1900
DGENRE=
TTITLE0=The Man I Love
TTITLE1=Lover, Come Me Back To Me
TTITLE2=Night And Day
TTITLE3=Trav'lin' Light
TTITLE4=Baby Get Lost
TTITLE5=No Good Man
TTITLE6=Mandy Is Two
TTITLE7=That Ole Devil Called Love
TTITLE8=Body And Soul
TTITLE9=Until The Real Thing Comes Along
TTITLE10=I Love My Man (Billie's Blues)
TTITLE11=Girls Were Made To Take Care Of Boys
TTITLE12=Big Stuff
TTITLE13=Them There Eyes
TTITLE14=What Is This Thing Called Love?
TTITLE15=My Man (Mon Homme)
TTITLE16=(There Is) No Greater Love
TTITLE17=Carelessly
EXTD=TK 56
EXTT0=
EXTT1=
EXTT2=
EXTT3=
EXTT4=
EXTT5=
EXTT6=
EXTT7=
EXTT8=
EXTT9=
EXTT10=
EXTT11=
EXTT12=
EXTT13=
EXTT14=
EXTT15=
EXTT16=
EXTT17=
PLAYORDER=
